<?xml version="1.0" encoding="UTF-8" ?>
<!DOCTYPE svg PUBLIC "-//W3C//DTD SVG 1.1//EN" "http://www.w3.org/Graphics/SVG/1.1/DTD/svg11.dtd">
<svg width="271pt" height="250pt" viewBox="0 0 271 250" version="1.1" xmlns="http://www.w3.org/2000/svg">
<path fill-opacity="0" fill="#ffffff" d=" M 0.00 0.00 L 271.00 0.00 L 271.00 250.00 L 0.00 250.00 L 0.00 0.00 Z" />
<path fill="#003c75" d=" M 110.94 20.80 C 113.12 20.60 115.31 20.46 117.49 20.37 L 117.46 19.60 C 127.12 19.31 136.80 19.23 146.47 19.61 L 146.49 20.35 C 152.43 20.28 158.23 21.85 163.96 23.25 C 164.59 23.34 165.86 23.52 166.50 23.61 L 166.52 24.41 C 167.15 24.50 168.39 24.67 169.02 24.76 C 170.05 25.10 171.08 25.42 172.13 25.73 C 173.38 26.21 174.65 26.68 175.90 27.19 C 178.70 28.41 181.52 29.61 184.38 30.71 L 184.63 31.61 C 184.97 31.59 185.67 31.56 186.02 31.54 C 187.70 32.71 189.47 33.76 191.30 34.69 C 196.46 37.75 201.27 41.35 205.90 45.15 C 209.40 48.28 212.82 51.53 215.80 55.17 C 216.67 56.07 217.55 56.95 218.44 57.83 L 218.47 58.33 C 222.10 64.11 228.00 68.61 229.79 75.43 L 230.43 75.52 C 230.40 77.04 230.39 78.57 230.39 80.09 C 230.09 80.81 229.50 82.25 229.20 82.97 C 225.54 81.18 221.65 79.11 219.48 75.52 C 218.11 73.50 216.65 71.55 215.21 69.58 L 214.86 69.37 C 210.29 63.56 204.89 58.41 199.21 53.69 C 196.15 51.47 193.18 49.12 189.92 47.20 C 188.87 46.54 187.83 45.88 186.79 45.24 C 185.17 44.36 183.57 43.47 182.04 42.47 C 181.69 42.49 180.98 42.54 180.63 42.56 L 180.42 41.67 C 178.55 40.95 176.73 40.11 174.90 39.29 C 173.65 38.74 172.38 38.24 171.13 37.71 C 168.42 36.83 165.72 35.93 162.99 35.11 C 157.81 33.31 152.32 32.94 146.99 31.82 C 140.93 31.76 134.55 30.69 128.69 32.56 C 126.78 36.00 124.39 39.14 122.30 42.46 C 117.25 43.75 112.05 44.45 107.14 46.24 C 105.04 47.04 102.95 47.87 100.85 48.68 C 99.66 49.22 98.46 49.75 97.27 50.30 C 95.10 51.54 92.90 52.71 90.65 53.78 L 90.41 54.21 C 88.40 55.40 86.44 56.66 84.45 57.86 L 84.53 58.17 C 82.65 59.39 80.90 60.78 79.21 62.23 C 77.77 63.45 76.39 64.74 75.06 66.08 C 70.64 70.07 67.24 74.99 63.76 79.78 C 62.42 82.23 61.06 84.67 59.48 86.98 C 59.52 87.34 59.60 88.06 59.65 88.41 L 58.73 88.58 C 57.94 90.78 57.05 92.94 56.24 95.14 C 55.85 96.09 55.46 97.05 55.08 98.02 C 54.68 99.32 54.36 100.65 54.02 101.97 C 53.14 104.71 52.40 107.52 53.32 110.35 L 52.92 110.71 L 52.73 110.86 C 52.24 110.49 51.77 110.11 51.30 109.73 C 50.09 112.27 48.17 114.34 45.86 115.94 C 44.14 117.98 42.43 120.03 40.66 122.03 L 41.33 122.82 L 39.46 122.70 L 40.32 124.39 L 39.23 123.80 C 38.52 125.57 37.81 127.35 37.10 129.12 C 36.62 129.96 36.14 130.80 35.67 131.65 C 32.25 141.92 30.48 152.82 30.90 163.65 C 29.68 163.82 28.48 164.04 27.28 164.29 L 26.72 164.42 C 23.76 162.14 22.74 158.48 21.72 155.07 C 21.58 152.89 21.45 150.71 21.37 148.52 L 20.60 148.45 C 20.27 138.23 20.06 127.97 20.64 117.75 C 21.46 114.88 21.52 111.88 21.78 108.92 C 22.71 104.43 23.72 99.97 24.71 95.49 L 25.23 95.45 C 25.51 94.00 25.80 92.54 26.17 91.11 C 27.10 88.62 27.99 86.11 28.77 83.57 L 29.25 83.46 C 29.99 81.14 30.87 78.87 31.72 76.59 L 32.24 76.38 C 36.42 67.40 42.26 59.26 49.01 52.03 C 54.27 46.46 60.63 42.14 66.84 37.72 C 68.56 36.77 70.27 35.81 71.95 34.78 C 75.56 32.74 79.21 30.73 83.10 29.24 C 84.75 28.52 86.41 27.80 88.08 27.12 C 89.37 26.69 90.67 26.27 91.96 25.82 C 92.97 25.48 93.97 25.14 94.97 24.78 C 95.47 24.64 96.48 24.34 96.98 24.20 C 98.29 23.72 99.66 23.42 101.01 23.07 C 104.30 22.23 107.65 21.62 110.94 20.80 Z" />
<path fill="#2294fd" d=" M 137.00 73.84 C 144.84 72.14 152.92 70.91 160.94 71.96 C 166.49 72.65 171.58 76.64 173.36 81.97 C 174.12 86.70 174.55 92.37 171.05 96.17 C 168.26 99.59 164.15 101.69 159.92 102.72 C 150.90 105.09 141.37 105.09 132.54 108.23 C 132.51 105.51 132.44 102.77 131.88 100.10 C 130.31 92.64 130.29 84.87 127.62 77.66 C 126.71 77.51 125.80 77.37 124.89 77.23 L 123.82 77.05 C 128.12 75.65 132.59 74.84 137.00 73.84 Z" />
<path fill="#0b82ef" d=" M 118.98 78.21 C 120.89 77.61 122.87 77.20 124.89 77.23 C 125.80 77.37 126.71 77.51 127.62 77.66 C 130.29 84.87 130.31 92.64 131.88 100.10 C 132.44 102.77 132.51 105.51 132.54 108.23 C 122.28 111.70 112.30 115.92 102.15 119.67 C 98.18 109.67 97.82 98.72 95.56 88.28 C 94.90 88.11 93.58 87.77 92.92 87.60 C 98.07 84.97 103.49 82.85 109.00 81.09 C 111.61 80.22 114.26 79.48 116.91 78.77 C 117.43 78.63 118.46 78.35 118.98 78.21 Z" />
<path fill="#0074df" d=" M 88.00 89.86 C 89.61 89.05 91.21 88.19 92.92 87.60 C 93.58 87.77 94.90 88.11 95.56 88.28 C 97.82 98.72 98.18 109.67 102.15 119.67 L 102.34 120.17 C 92.81 123.64 84.43 129.56 75.67 134.55 C 73.67 127.66 75.29 120.44 73.66 113.50 C 72.83 108.67 73.58 103.70 72.41 98.92 L 72.18 97.88 C 77.55 95.39 82.62 92.32 88.00 89.86 Z" />
<path fill="#0068c8" d=" M 71.31 98.15 L 72.41 98.92 C 73.58 103.70 72.83 108.67 73.66 113.50 C 75.29 120.44 73.67 127.66 75.67 134.55 C 68.64 140.28 61.05 145.37 54.74 151.94 L 54.65 150.87 C 54.25 144.24 53.22 137.65 53.23 131.00 C 53.29 124.28 52.05 117.59 52.73 110.86 L 52.92 110.71 L 53.32 110.35 C 58.99 105.80 65.54 102.54 71.31 98.15 Z" />
<path fill="#ff7c30" d=" M 195.80 107.51 C 201.51 106.27 207.27 107.68 213.03 107.32 C 221.74 107.37 230.46 107.10 239.17 107.44 C 234.92 107.18 230.67 107.43 226.44 107.82 C 226.49 119.51 226.57 131.20 226.19 142.88 C 224.64 143.34 223.09 143.81 221.55 144.28 L 221.23 143.93 C 220.82 143.33 219.99 142.14 219.57 141.54 L 218.53 142.93 L 218.58 140.86 L 216.96 142.06 L 217.37 140.22 L 215.90 141.54 L 216.07 139.63 L 214.81 140.78 C 213.01 138.85 210.44 137.00 210.64 134.04 C 210.76 125.24 208.19 116.68 208.71 107.86 C 204.41 107.57 200.09 107.99 195.80 107.51 Z" />
<path fill="#ffa530" d=" M 178.71 108.67 C 184.47 109.20 190.07 107.25 195.80 107.51 C 200.09 107.99 204.41 107.57 208.71 107.86 C 208.19 116.68 210.76 125.24 210.64 134.04 C 210.44 137.00 213.01 138.85 214.81 140.78 L 216.07 139.63 L 215.90 141.54 L 217.37 140.22 L 216.96 142.06 L 218.58 140.86 L 218.53 142.93 L 219.57 141.54 C 219.99 142.14 220.82 143.33 221.23 143.93 L 221.41 144.27 C 215.28 144.39 209.15 144.41 203.03 144.58 C 195.45 145.18 187.91 146.18 180.32 146.59 C 178.16 134.31 181.10 121.65 178.90 109.40 L 178.71 108.67 Z" />
<path fill="#ff4130" d=" M 226.44 107.82 C 230.67 107.43 234.92 107.18 239.17 107.44 C 239.89 107.52 241.32 107.67 242.04 107.74 C 244.43 108.62 246.99 108.67 249.51 108.76 C 249.85 121.14 249.92 133.57 249.24 145.95 C 248.60 147.58 248.22 149.30 247.84 151.00 C 247.54 152.10 247.22 153.19 246.88 154.28 C 246.98 151.76 247.00 149.23 247.06 146.71 C 238.90 146.22 230.82 144.22 222.62 145.23 C 222.35 144.99 221.82 144.52 221.55 144.28 C 223.09 143.81 224.64 143.34 226.19 142.88 C 226.57 131.20 226.49 119.51 226.44 107.82 Z" />
<path fill="#00539f" d=" M 51.30 109.73 C 51.77 110.11 52.24 110.49 52.73 110.86 C 52.05 117.59 53.29 124.28 53.23 131.00 C 53.22 137.65 54.25 144.24 54.65 150.87 L 54.72 152.07 C 48.28 158.54 41.75 167.58 31.48 166.78 L 31.54 165.51 C 30.20 165.13 27.74 165.99 27.28 164.29 C 28.48 164.04 29.68 163.82 30.90 163.65 C 30.48 152.82 32.25 141.92 35.67 131.65 C 36.14 130.80 36.62 129.96 37.10 129.12 C 37.81 127.35 38.52 125.57 39.23 123.80 L 40.32 124.39 L 39.46 122.70 L 41.33 122.82 L 40.66 122.03 C 42.43 120.03 44.14 117.98 45.86 115.94 C 48.17 114.34 50.09 112.27 51.30 109.73 Z" />
<path fill="#ffc730" d=" M 154.04 113.75 C 162.18 111.56 170.55 110.44 178.90 109.40 C 181.10 121.65 178.16 134.31 180.32 146.59 C 180.35 146.77 180.41 147.13 180.45 147.31 C 170.69 147.93 161.33 151.05 151.95 153.57 C 141.61 156.76 131.53 160.68 121.67 165.10 C 118.12 161.03 119.00 155.33 117.93 150.40 C 116.43 142.67 115.62 134.82 113.83 127.16 L 113.75 126.80 C 126.93 121.77 140.15 116.54 154.04 113.75 Z" />
<path fill="#ffdc30" d=" M 80.22 143.65 C 91.67 138.66 102.22 131.78 113.83 127.16 C 115.62 134.82 116.43 142.67 117.93 150.40 C 119.00 155.33 118.12 161.03 121.67 165.10 C 116.24 167.91 110.82 170.70 105.52 173.75 C 98.43 177.70 90.40 181.46 82.08 179.90 C 76.29 179.20 71.94 174.29 70.11 169.02 C 67.03 159.72 70.61 147.50 80.22 143.65 Z" />
<path fill="#ff1c2f" d=" M 221.23 143.93 L 221.55 144.28 C 221.82 144.52 222.35 144.99 222.62 145.23 C 230.82 144.22 238.90 146.22 247.06 146.71 C 247.00 149.23 246.98 151.76 246.88 154.28 C 246.76 155.88 246.32 157.43 245.82 158.95 C 245.69 159.48 245.44 160.55 245.31 161.08 C 244.93 162.08 244.57 163.09 244.22 164.11 C 243.74 165.36 243.27 166.63 242.80 167.89 C 241.97 169.97 241.06 172.02 240.18 174.09 C 229.07 197.39 209.49 216.40 186.06 227.17 C 182.77 228.65 179.40 229.95 176.03 231.24 C 175.51 231.36 174.47 231.59 173.95 231.71 C 168.46 233.66 162.71 234.84 156.99 235.88 C 145.10 238.09 132.93 237.63 120.96 236.26 C 115.05 234.68 108.88 234.00 103.13 231.78 C 100.42 230.89 97.71 229.97 95.09 228.84 C 93.71 228.28 92.34 227.72 90.95 227.19 C 74.31 219.24 59.27 207.13 50.01 191.00 C 49.54 189.90 49.17 188.77 48.89 187.60 C 51.22 187.88 53.97 187.51 55.93 189.01 C 66.93 202.75 81.86 213.15 98.13 219.72 C 99.11 220.10 100.10 220.48 101.08 220.86 C 105.67 222.50 110.39 223.70 115.11 224.91 C 130.35 227.56 146.52 227.68 161.25 222.42 C 163.55 219.38 165.75 216.23 168.46 213.53 C 170.75 211.23 173.85 210.10 176.72 208.71 C 193.49 199.87 207.27 185.36 214.80 167.93 C 216.68 164.49 217.76 160.72 218.95 157.01 C 220.18 152.87 221.15 148.59 221.41 144.27 L 221.23 143.93 Z" />
</svg>
